<svg width="212" height="100" viewBox="0 0 212 100" fill="none" xmlns="http://www.w3.org/2000/svg">
<g filter="url(#filter0_d_2194_397)">
<g clip-path="url(#clip0_2194_397)">
<rect x="24" y="16" width="156" height="36" rx="18" fill="black"/>
<circle cx="42" cy="34" r="16" fill="#FF6F00"/>
<path d="M37.9386 42C37.6725 42 37.4255 41.9149 37.2073 41.7628C37.1792 41.7438 37.1602 41.7248 37.1412 41.7058C37.1222 41.6967 37.1123 41.6777 37.1032 41.6678C37.0651 41.6389 37.0461 41.6108 37.018 41.5826C36.999 41.5636 36.9891 41.5446 36.9709 41.5256L36.9618 41.5165C36.9427 41.4975 36.9329 41.4785 36.9237 41.4595L36.9047 41.4306C36.8667 41.3736 36.8386 41.3166 36.8097 41.2596C36.8006 41.2314 36.7907 41.2025 36.7808 41.1744C36.7717 41.1455 36.7618 41.1083 36.7527 41.0794C36.7428 41.0414 36.7337 40.9943 36.7238 40.9464C36.7238 40.9274 36.7147 40.8992 36.7147 40.8802C36.7147 40.8422 36.7056 40.8042 36.7056 40.7662C36.7056 40.7001 36.7147 40.6332 36.7246 40.5571L37.4559 36.303L34.3695 33.2926C34.3124 33.2356 34.2554 33.1695 34.2083 33.1026C34.1513 33.0174 34.1133 32.9505 34.0851 32.8745C34.076 32.8464 34.057 32.8084 34.0471 32.7605C34.0182 32.6465 34 32.5324 34 32.4093C34 32.3713 34 32.3431 34 32.3051C34 32.2481 34.0091 32.1911 34.0281 32.1341C34.0281 32.125 34.0373 32.106 34.0373 32.0961C34.0471 32.0672 34.0471 32.0391 34.0563 32.0109C34.0563 32.0018 34.0654 31.982 34.0753 31.9539C34.0844 31.925 34.0943 31.8969 34.1133 31.8688C34.1414 31.8118 34.1703 31.7547 34.2174 31.6886C34.2364 31.6506 34.2646 31.6225 34.2934 31.5936C34.2934 31.5936 34.2934 31.5845 34.3026 31.5845L34.4546 31.3374H34.5876C34.6066 31.3275 34.6158 31.3184 34.6348 31.3085C34.6538 31.2994 34.6918 31.2804 34.7199 31.2614C34.7579 31.2424 34.8051 31.2234 34.8621 31.2044C34.8811 31.1952 34.9092 31.1853 34.9381 31.1853C34.9761 31.1762 35.0141 31.1663 35.0612 31.1565L39.3343 30.5392L41.2143 26.6933C41.4234 26.2661 41.8506 26 42.325 26C42.6671 26 42.9993 26.1422 43.2365 26.3892C43.2745 26.4364 43.3125 26.4744 43.3406 26.5223C43.3786 26.5793 43.4166 26.6363 43.4448 26.6933L45.3536 30.5483L49.6169 31.1656C50.092 31.2317 50.4812 31.5647 50.6234 32.0201C50.6333 32.0489 50.6424 32.0672 50.6424 32.0961C50.6424 32.1052 50.6424 32.1052 50.6515 32.1151C50.6606 32.144 50.6705 32.1721 50.6705 32.2101C50.6705 32.2192 50.6705 32.2192 50.6705 32.2291C50.6796 32.2671 50.6796 32.2952 50.6796 32.3333C50.6895 32.5134 50.6606 32.7035 50.5846 32.8745C50.5557 32.9505 50.5185 33.0167 50.4706 33.0836L50.4607 33.0927C50.4136 33.1588 50.3565 33.2257 50.2995 33.2827L47.2131 36.2932L47.9444 40.5374C48.0204 41.0026 47.8403 41.4679 47.4503 41.7529C47.3553 41.8191 47.2412 41.886 47.1272 41.924C47.1173 41.924 47.1082 41.9339 47.0892 41.9339C46.966 41.9719 46.8421 41.9909 46.719 41.9909C46.5198 41.9909 46.3199 41.9437 46.1397 41.8487L42.3227 39.8448L38.5057 41.8487C38.337 41.9529 38.1378 42 37.9386 42Z" fill="black"/>
<path d="M42.3248 26.6073V34.4602L39.7036 31.1085L41.7546 26.9593C41.8786 26.7312 42.1066 26.6073 42.3248 26.6073Z" fill="#FFFAF6"/>
<path d="M50.0447 32.2198L42.334 34.4609L44.9544 31.1091L49.5316 31.7736C49.7885 31.8207 49.9687 32.0009 50.0447 32.2198Z" fill="white"/>
<path d="M47.0922 41.2686L42.3257 34.4602L46.5608 36.084L47.3392 40.6422C47.3955 40.9083 47.2814 41.1356 47.0922 41.2686Z" fill="#6B6B6B"/>
<path d="M42.325 34.4602V39.1605L38.232 41.3157C37.9949 41.4389 37.7478 41.4009 37.5577 41.2686L42.325 34.4602Z" fill="#373737"/>
<path d="M44.9461 31.1085L42.325 34.4602V26.6073C42.496 26.6073 42.667 26.6734 42.7902 26.8065C42.8092 26.8255 42.8282 26.8536 42.8472 26.8825C42.8662 26.9114 42.8852 26.9395 42.8943 26.9676L44.9461 31.1085Z" fill="#D7D7D7"/>
<path d="M50.0257 32.6471C50.0067 32.6851 49.9877 32.7231 49.9687 32.7611C49.9398 32.7992 49.9117 32.8273 49.8835 32.8653L46.5698 36.0939L42.3347 34.4701L50.0455 32.229C50.0455 32.2381 50.0546 32.248 50.0546 32.2579C50.0546 32.2678 50.0645 32.2769 50.0645 32.2959C50.0645 32.3058 50.0645 32.3058 50.0645 32.3058C50.0645 32.3149 50.0645 32.3248 50.0645 32.3339C50.0645 32.3529 50.0645 32.3628 50.0645 32.381C50.0736 32.4662 50.0637 32.5612 50.0257 32.6471Z" fill="#373737"/>
<path d="M47.0922 41.2686C47.0451 41.3066 46.988 41.3347 46.9211 41.3537C46.912 41.3537 46.912 41.3537 46.9021 41.3629C46.7501 41.41 46.579 41.4009 46.4179 41.3157L42.325 39.1605V34.4602L47.0922 41.2686Z" fill="#141414"/>
<path d="M42.325 34.4602L37.5586 41.2686C37.5494 41.2587 37.5396 41.2496 37.5304 41.2397C37.5213 41.2306 37.5114 41.2207 37.5015 41.2108C37.4924 41.2017 37.4825 41.1918 37.4635 41.1728C37.4537 41.1637 37.4445 41.1538 37.4346 41.1439C37.4248 41.134 37.4255 41.1348 37.4255 41.1249C37.4164 41.1158 37.4065 41.1059 37.4065 41.096C37.3875 41.0679 37.3685 41.039 37.3594 41.0109C37.3503 41.0018 37.3503 40.982 37.3404 40.9637C37.3313 40.9447 37.3313 40.9349 37.3214 40.9166C37.3123 40.8976 37.3123 40.8695 37.3123 40.8505C37.3123 40.8414 37.3123 40.8216 37.3123 40.8125C37.3123 40.7935 37.3123 40.7745 37.3123 40.7554C37.3123 40.7174 37.3123 40.6794 37.3214 40.6414L38.0998 36.0832L42.325 34.4602Z" fill="white"/>
<path d="M42.3249 34.4602L34.6141 32.2191C34.6141 32.21 34.6233 32.2001 34.6233 32.1902C34.6324 32.1712 34.6324 32.1522 34.6423 32.1431C34.6613 32.1051 34.6803 32.0769 34.6993 32.048C34.7084 32.029 34.7183 32.0192 34.7373 32.0009C34.7472 31.9918 34.7563 31.972 34.7753 31.9629C34.7844 31.9538 34.8042 31.9348 34.8133 31.9249C34.8224 31.915 34.8414 31.9059 34.8513 31.896C34.8703 31.8869 34.8893 31.8671 34.9083 31.858C34.9175 31.8489 34.9365 31.839 34.9555 31.839C34.9844 31.8299 35.0026 31.82 35.0315 31.8101C35.0406 31.8101 35.0505 31.801 35.0695 31.801C35.0885 31.7919 35.1166 31.7919 35.1455 31.782L39.7227 31.1176L42.3249 34.4602Z" fill="#D7D7D7"/>
<path d="M42.3248 34.4602L38.0996 36.0931L34.7859 32.8645C34.7479 32.8356 34.7289 32.7984 34.7007 32.7603C34.6817 32.7223 34.6536 32.6843 34.6437 32.6463C34.6346 32.6273 34.6247 32.6083 34.6247 32.5893C34.6057 32.5323 34.5958 32.4661 34.5958 32.4091C34.5958 32.3901 34.5958 32.3711 34.5958 32.3521C34.5958 32.324 34.5958 32.305 34.6057 32.2761C34.6057 32.267 34.6148 32.2571 34.6148 32.2381C34.6148 32.229 34.624 32.2191 34.624 32.21L42.3248 34.4602Z" fill="#6B6B6B"/>
<path d="M72.18 41.28C71.1 41.28 70.1467 41.0867 69.32 40.7C68.4933 40.3133 67.8467 39.76 67.38 39.04C66.9133 38.32 66.68 37.4533 66.68 36.44V35.88H69.28V36.44C69.28 37.28 69.54 37.9133 70.06 38.34C70.58 38.7533 71.2867 38.96 72.18 38.96C73.0867 38.96 73.76 38.78 74.2 38.42C74.6533 38.06 74.88 37.6 74.88 37.04C74.88 36.6533 74.7667 36.34 74.54 36.1C74.3267 35.86 74.0067 35.6667 73.58 35.52C73.1667 35.36 72.66 35.2133 72.06 35.08L71.6 34.98C70.64 34.7667 69.8133 34.5 69.12 34.18C68.44 33.8467 67.9133 33.4133 67.54 32.88C67.18 32.3467 67 31.6533 67 30.8C67 29.9467 67.2 29.22 67.6 28.62C68.0133 28.0067 68.5867 27.54 69.32 27.22C70.0667 26.8867 70.94 26.72 71.94 26.72C72.94 26.72 73.8267 26.8933 74.6 27.24C75.3867 27.5733 76 28.08 76.44 28.76C76.8933 29.4267 77.12 30.2667 77.12 31.28V31.88H74.52V31.28C74.52 30.7467 74.4133 30.32 74.2 30C74 29.6667 73.7067 29.4267 73.32 29.28C72.9333 29.12 72.4733 29.04 71.94 29.04C71.14 29.04 70.5467 29.1933 70.16 29.5C69.7867 29.7933 69.6 30.2 69.6 30.72C69.6 31.0667 69.6867 31.36 69.86 31.6C70.0467 31.84 70.32 32.04 70.68 32.2C71.04 32.36 71.5 32.5 72.06 32.62L72.52 32.72C73.52 32.9333 74.3867 33.2067 75.12 33.54C75.8667 33.8733 76.4467 34.3133 76.86 34.86C77.2733 35.4067 77.48 36.1067 77.48 36.96C77.48 37.8133 77.26 38.5667 76.82 39.22C76.3933 39.86 75.78 40.3667 74.98 40.74C74.1933 41.1 73.26 41.28 72.18 41.28ZM82.2397 41V29.4H78.1597V27H88.9597V29.4H84.8797V41H82.2397ZM88.5084 41L92.1884 27H96.7884L100.468 41H97.7484L96.9884 37.92H91.9884L91.2284 41H88.5084ZM92.6084 35.48H96.3684L94.6684 28.66H94.3084L92.6084 35.48ZM102.144 41V27H108.224C109.104 27 109.871 27.1533 110.524 27.46C111.178 27.7667 111.684 28.2 112.044 28.76C112.404 29.32 112.584 29.98 112.584 30.74V30.98C112.584 31.82 112.384 32.5 111.984 33.02C111.584 33.54 111.091 33.92 110.504 34.16V34.52C111.038 34.5467 111.451 34.7333 111.744 35.08C112.038 35.4133 112.184 35.86 112.184 36.42V41H109.544V36.8C109.544 36.48 109.458 36.22 109.284 36.02C109.124 35.82 108.851 35.72 108.464 35.72H104.784V41H102.144ZM104.784 33.32H107.944C108.571 33.32 109.058 33.1533 109.404 32.82C109.764 32.4733 109.944 32.02 109.944 31.46V31.26C109.944 30.7 109.771 30.2533 109.424 29.92C109.078 29.5733 108.584 29.4 107.944 29.4H104.784V33.32ZM119.641 41.28C118.561 41.28 117.608 41.0867 116.781 40.7C115.954 40.3133 115.308 39.76 114.841 39.04C114.374 38.32 114.141 37.4533 114.141 36.44V35.88H116.741V36.44C116.741 37.28 117.001 37.9133 117.521 38.34C118.041 38.7533 118.748 38.96 119.641 38.96C120.548 38.96 121.221 38.78 121.661 38.42C122.114 38.06 122.341 37.6 122.341 37.04C122.341 36.6533 122.228 36.34 122.001 36.1C121.788 35.86 121.468 35.6667 121.041 35.52C120.628 35.36 120.121 35.2133 119.521 35.08L119.061 34.98C118.101 34.7667 117.274 34.5 116.581 34.18C115.901 33.8467 115.374 33.4133 115.001 32.88C114.641 32.3467 114.461 31.6533 114.461 30.8C114.461 29.9467 114.661 29.22 115.061 28.62C115.474 28.0067 116.048 27.54 116.781 27.22C117.528 26.8867 118.401 26.72 119.401 26.72C120.401 26.72 121.288 26.8933 122.061 27.24C122.848 27.5733 123.461 28.08 123.901 28.76C124.354 29.4267 124.581 30.2667 124.581 31.28V31.88H121.981V31.28C121.981 30.7467 121.874 30.32 121.661 30C121.461 29.6667 121.168 29.4267 120.781 29.28C120.394 29.12 119.934 29.04 119.401 29.04C118.601 29.04 118.008 29.1933 117.621 29.5C117.248 29.7933 117.061 30.2 117.061 30.72C117.061 31.0667 117.148 31.36 117.321 31.6C117.508 31.84 117.781 32.04 118.141 32.2C118.501 32.36 118.961 32.5 119.521 32.62L119.981 32.72C120.981 32.9333 121.848 33.2067 122.581 33.54C123.328 33.8733 123.908 34.3133 124.321 34.86C124.734 35.4067 124.941 36.1067 124.941 36.96C124.941 37.8133 124.721 38.5667 124.281 39.22C123.854 39.86 123.241 40.3667 122.441 40.74C121.654 41.1 120.721 41.28 119.641 41.28ZM137.428 41.28C135.668 41.28 134.268 40.8 133.228 39.84C132.188 38.8667 131.668 37.48 131.668 35.68V32.32C131.668 30.52 132.188 29.14 133.228 28.18C134.268 27.2067 135.668 26.72 137.428 26.72C139.188 26.72 140.588 27.2067 141.628 28.18C142.668 29.14 143.188 30.52 143.188 32.32V35.68C143.188 37.48 142.668 38.8667 141.628 39.84C140.588 40.8 139.188 41.28 137.428 41.28ZM137.428 38.92C138.415 38.92 139.181 38.6333 139.728 38.06C140.275 37.4867 140.548 36.72 140.548 35.76V32.24C140.548 31.28 140.275 30.5133 139.728 29.94C139.181 29.3667 138.415 29.08 137.428 29.08C136.455 29.08 135.688 29.3667 135.128 29.94C134.581 30.5133 134.308 31.28 134.308 32.24V35.76C134.308 36.72 134.581 37.4867 135.128 38.06C135.688 38.6333 136.455 38.92 137.428 38.92ZM145.504 41V27H154.304V29.4H148.144V32.78H153.824V35.18H148.144V41H145.504ZM156.187 41V27H164.987V29.4H158.827V32.78H164.507V35.18H158.827V41H156.187Z" fill="white"/>
</g>
<rect x="24.5" y="16.5" width="155" height="35" rx="17.5" stroke="white"/>
</g>
<defs>
<filter id="filter0_d_2194_397" x="-8" y="0" width="220" height="100" filterUnits="userSpaceOnUse" color-interpolation-filters="sRGB">
<feFlood floodOpacity="0" result="BackgroundImageFix"/>
<feColorMatrix in="SourceAlpha" type="matrix" values="0 0 0 0 0 0 0 0 0 0 0 0 0 0 0 0 0 0 127 0" result="hardAlpha"/>
<feOffset dy="16"/>
<feGaussianBlur stdDeviation="16"/>
<feComposite in2="hardAlpha" operator="out"/>
<feColorMatrix type="matrix" values="0 0 0 0 0.0558946 0 0 0 0 0.0554761 0 0 0 0 0.0861003 0 0 0 0.39 0"/>
<feBlend mode="normal" in2="BackgroundImageFix" result="effect1_dropShadow_2194_397"/>
<feBlend mode="normal" in="SourceGraphic" in2="effect1_dropShadow_2194_397" result="shape"/>
</filter>
<clipPath id="clip0_2194_397">
<rect x="24" y="16" width="156" height="36" rx="18" fill="white"/>
</clipPath>
</defs>
</svg>
